<?xml version="1.0" standalone="no"?>
<!DOCTYPE svg PUBLIC "-//W3C//DTD SVG 20010904//EN"
 "http://www.w3.org/TR/2001/REC-SVG-20010904/DTD/svg10.dtd">
<svg version="1.0" xmlns="http://www.w3.org/2000/svg"
 width="1280.000000pt" height="942.000000pt" viewBox="0 0 1280.000000 942.000000"
 preserveAspectRatio="xMidYMid meet">
<metadata>
Created by potrace 1.15, written by Peter Selinger 2001-2017
</metadata>
<g transform="translate(0.000000,942.000000) scale(0.100000,-0.100000)"
fill="#ffc107" stroke="none">
<path d="M2650 9409 c-612 -69 -1164 -425 -1572 -1014 -31 -44 -102 -161 -158
-260 -121 -212 -173 -288 -235 -343 -89 -79 -167 -87 -413 -47 -198 33 -225
32 -251 -1 -41 -52 -24 -140 82 -439 82 -231 111 -287 271 -524 73 -108 168
-254 212 -324 337 -544 979 -1203 1534 -1576 238 -160 508 -301 575 -301 45 0
94 46 186 173 59 81 76 113 67 119 -7 4 -39 8 -71 8 -83 0 -97 10 -97 69 0 69
-16 80 -86 56 -39 -13 -58 -15 -65 -8 -6 6 -17 43 -25 83 -18 98 -24 104 -102
97 -78 -6 -87 2 -96 81 -4 32 -14 68 -22 81 -14 20 -21 21 -75 15 -39 -4 -64
-3 -73 5 -8 6 -17 42 -21 79 -11 103 -14 106 -96 98 -68 -7 -69 -7 -79 19 -6
14 -10 46 -10 69 0 60 -18 105 -43 111 -12 3 -47 4 -77 3 l-55 -3 -5 86 c-6
109 -14 119 -94 119 -36 0 -70 6 -80 13 -17 12 -17 19 -6 84 15 81 10 109 -17
95 -10 -6 -37 -13 -61 -17 -65 -11 -72 0 -72 116 l0 98 -70 133 c-125 239
-154 348 -171 631 -17 283 7 445 96 665 141 348 468 684 852 876 398 199 801
215 1104 43 134 -76 228 -169 358 -356 36 -51 103 -129 153 -175 68 -65 88
-90 88 -110 0 -16 11 -38 26 -53 22 -22 30 -24 72 -18 26 3 180 51 342 105
341 113 404 126 601 117 165 -7 291 -37 437 -107 361 -172 573 -444 706 -907
53 -184 69 -318 64 -540 -7 -274 -46 -439 -163 -678 -277 -569 -787 -860
-1680 -960 -77 -9 -158 -21 -180 -26 -139 -37 -266 -150 -339 -301 -66 -138
-81 -207 -80 -373 0 -120 4 -154 26 -240 15 -55 41 -188 59 -295 35 -222 63
-319 114 -405 45 -74 76 -107 138 -147 157 -101 351 -113 657 -42 58 14 113
27 123 30 34 11 16 -31 -28 -63 -86 -64 -143 -176 -152 -301 -6 -68 -8 -75
-38 -98 -75 -57 -153 -180 -193 -304 -35 -108 -292 -991 -307 -1055 -30 -125
-13 -278 44 -399 26 -54 29 -69 24 -131 -15 -211 120 -432 327 -534 76 -37
146 -56 645 -172 365 -85 588 -132 640 -136 152 -10 318 47 427 146 52 47 54
48 150 59 54 7 126 23 160 36 83 31 1034 563 1106 618 129 100 222 282 222
438 0 48 0 48 53 78 167 95 270 303 240 484 -13 79 -46 158 -90 215 -36 47
-33 56 6 19 60 -57 298 -227 384 -274 50 -28 135 -65 187 -83 85 -29 108 -32
210 -33 181 -1 296 48 430 183 71 72 113 127 293 386 42 61 108 148 147 194
40 46 92 120 117 163 25 43 47 78 49 78 3 0 41 -20 87 -45 119 -64 215 -102
357 -140 69 -19 182 -50 252 -69 289 -79 408 -67 408 44 0 21 -21 127 -46 237
-41 175 -46 208 -42 288 3 76 8 98 33 144 40 72 150 172 291 262 436 279 555
369 780 594 172 171 249 265 374 452 167 250 298 563 354 843 139 693 -54
1390 -561 2023 -43 54 -63 88 -63 107 0 34 -29 72 -78 101 -20 12 -75 59 -122
104 -47 44 -106 93 -131 107 -63 37 -181 75 -258 84 -50 5 -97 23 -218 81
-1287 617 -2297 422 -3169 -612 -183 -216 -423 -574 -499 -743 -128 -286 -211
-555 -258 -836 l-23 -138 -42 47 c-27 31 -45 44 -54 39 -7 -4 -69 -53 -137
-108 -123 -100 -181 -167 -181 -211 0 -31 69 -169 146 -292 107 -171 233 -341
399 -538 47 -56 54 -71 83 -180 42 -162 56 -280 43 -381 -17 -135 -50 -211
-194 -454 -198 -334 -273 -532 -249 -655 27 -135 132 -235 500 -474 78 -51
142 -97 142 -101 0 -19 -28 -23 -124 -21 -79 2 -116 -2 -167 -18 -122 -38
-230 -126 -284 -232 l-24 -46 -98 -5 c-60 -3 -116 -12 -143 -23 -25 -10 -267
-138 -539 -284 -338 -182 -510 -280 -544 -310 l-49 -45 -177 43 c-97 24 -179
46 -182 50 -4 3 42 164 102 356 118 379 132 449 109 558 -19 94 -82 206 -162
292 l-72 77 -1 122 c0 110 -2 126 -27 179 -55 117 -179 213 -303 234 -33 6
-51 14 -53 24 -2 14 31 22 200 49 504 80 570 132 585 453 3 77 -1 186 -11 295
-28 298 -19 390 50 527 50 99 120 187 298 373 177 185 256 295 345 483 124
261 193 536 221 884 14 177 12 266 -11 436 -70 528 -211 946 -427 1268 -90
135 -258 314 -379 405 -356 267 -797 389 -1395 385 l-188 -1 -42 35 c-67 53
-294 208 -391 266 -405 244 -879 357 -1297 310z m7632 -1839 c182 -38 352
-110 497 -208 110 -75 259 -210 297 -270 70 -109 185 -206 372 -314 334 -192
517 -440 578 -782 21 -118 18 -338 -6 -482 -108 -633 -620 -1279 -1203 -1519
-221 -91 -419 -125 -722 -125 -287 0 -467 40 -753 166 -219 97 -477 248 -560
328 -132 125 -300 359 -382 531 -85 179 -128 331 -156 555 -86 690 242 1398
864 1862 197 148 442 246 692 278 109 14 373 3 482 -20z m-5132 -4480 c12 -8
11 -10 -7 -10 -13 0 -23 5 -23 10 0 13 11 13 30 0z m68 -24 c42 -22 99 -87
122 -138 19 -44 31 -150 18 -163 -3 -3 -21 3 -39 14 -27 16 -110 50 -186 76
-14 5 9 100 39 158 10 21 17 45 14 53 -7 18 -2 18 32 0z m-318 -35 c0 -5 -7
-12 -16 -15 -14 -5 -15 -4 -4 9 14 17 20 19 20 6z m60 -153 c0 -3 -21 -9 -46
-13 -25 -3 -63 -13 -85 -20 -36 -13 -39 -13 -39 4 0 25 25 94 45 124 l16 25
54 -58 c30 -31 55 -59 55 -62z m185 -229 c33 -16 71 -38 85 -48 l25 -20 -55
-25 c-107 -50 -249 -27 -324 52 l-28 30 23 13 c41 22 122 37 169 31 25 -3 72
-18 105 -33z m-329 -138 c121 -111 295 -130 460 -51 68 33 73 31 107 -44 73
-155 66 -224 -58 -626 -54 -173 -99 -317 -101 -319 -3 -3 -73 12 -157 32 -170
41 -256 46 -352 21 -121 -31 -247 -122 -341 -247 l-47 -62 5 90 c4 79 22 150
142 560 83 283 152 498 173 542 30 63 95 153 110 153 3 0 29 -22 59 -49z
m2894 -381 c13 -8 13 -10 -2 -10 -9 0 -20 5 -23 10 -8 13 5 13 25 0z m-71
-107 c-3 -60 -11 -130 -19 -156 -12 -45 -11 -49 10 -72 36 -39 81 -33 170 20
41 25 99 54 129 66 30 11 60 27 66 36 10 13 14 8 25 -31 19 -69 9 -180 -22
-241 -25 -48 -116 -145 -137 -145 -6 0 -17 15 -26 34 -21 44 -125 168 -190
227 -74 66 -115 94 -197 135 -40 20 -74 38 -76 39 -10 8 34 68 78 108 49 44
133 85 175 86 19 1 20 -4 14 -106z m352 -65 c11 -20 11 -20 -14 -2 -14 11 -23
22 -20 27 6 10 21 0 34 -25z m-761 -333 c30 -78 68 -133 127 -185 73 -64 203
-123 293 -133 41 -4 42 -17 9 -100 -36 -92 -130 -200 -224 -259 -140 -87 -865
-483 -923 -503 -114 -40 -108 -46 -104 102 2 72 -2 159 -8 198 -27 154 -101
306 -194 400 l-45 44 32 19 c92 56 823 445 860 458 50 18 140 33 148 25 3 -3
16 -33 29 -66z m286 -21 c53 -35 144 -127 144 -146 0 -5 -8 -7 -17 -4 -10 3
-35 8 -56 12 -59 10 -151 75 -191 136 -20 29 -36 58 -36 65 0 18 88 -18 156
-63z m-2476 -378 c109 -27 110 -27 59 -112 -91 -151 -263 -244 -451 -244 -96
0 -146 17 -200 68 l-27 25 26 49 c29 54 134 157 186 185 111 58 249 68 407 29z
m545 -134 l150 -38 1 -135 c1 -102 7 -153 23 -213 49 -185 125 -309 240 -393
l64 -47 -39 -18 c-65 -29 -143 -40 -243 -36 -92 5 -273 44 -925 200 -152 36
-262 87 -339 158 -49 45 -116 145 -104 156 3 3 20 -2 37 -11 18 -9 72 -23 119
-31 381 -62 730 104 821 391 16 51 19 55 33 55 7 0 79 -18 162 -38z m479 -194
c104 -106 156 -232 156 -380 0 -94 -9 -101 -81 -67 -107 49 -167 156 -176 309
-6 88 10 200 29 200 5 0 38 -28 72 -62z"/>
</g>
</svg>
